<svg xmlns="http://www.w3.org/2000/svg" width="96" height="96" viewBox="0 0 96 96">
  <!-- Background -->
  <rect width="96" height="96" rx="19.200000000000003" fill="#143d24"/>
  <!-- Grid lines (subtle) -->
  <line x1="31.68" y1="11.52" x2="31.68" y2="84.48" stroke="rgba(255,255,255,0.06)" stroke-width="1"/>
  <line x1="63.36" y1="11.52" x2="63.36" y2="84.48" stroke="rgba(255,255,255,0.06)" stroke-width="1"/>
  <!-- Book pages (left) -->
  <rect x="11.52" y="21.12" width="33.599999999999994" height="53.760000000000005" rx="2.88" fill="#0e2818"/>
  <rect x="13.440000000000001" y="23.04" width="29.759999999999998" height="49.92" rx="2.4000000000000004" fill="#1c5430"/>
  <!-- Page lines -->
  <line x1="17.28" y1="32.64" x2="39.36" y2="32.64" stroke="rgba(255,255,255,0.4)" stroke-width="1.7279999999999998" stroke-linecap="round"/>
  <line x1="17.28" y1="40.32" x2="39.36" y2="40.32" stroke="rgba(255,255,255,0.4)" stroke-width="1.7279999999999998" stroke-linecap="round"/>
  <line x1="17.28" y1="48.0" x2="33.599999999999994" y2="48.0" stroke="rgba(255,255,255,0.25)" stroke-width="1.44" stroke-linecap="round"/>
  <!-- Chart bars (right) -->
  <rect x="50.88" y="57.599999999999994" width="7.199999999999999" height="17.28" rx="1.44" fill="#7dd4a0"/>
  <rect x="59.04" y="46.08" width="7.199999999999999" height="28.799999999999997" rx="1.44" fill="#7dd4a0"/>
  <rect x="67.19999999999999" y="33.599999999999994" width="7.199999999999999" height="41.28" rx="1.44" fill="#7dd4a0"/>
  <rect x="75.36" y="42.24" width="7.199999999999999" height="32.64" rx="1.44" fill="#a8e8c0"/>
  <!-- Trend line over bars -->
  <polyline points="53.28,55.67999999999999 61.44,44.160000000000004 69.6,31.68 77.76,40.32" 
    fill="none" stroke="#f0c060" stroke-width="2.112" stroke-linecap="round" stroke-linejoin="round"/>
  <!-- Dollar sign accent -->
  <circle cx="78.24" cy="25.44" r="6.720000000000001" fill="#f0c060"/>
  <text x="78.24" y="28.32" text-anchor="middle" fill="#1a1a18" font-size="8.64" font-weight="bold" font-family="Georgia,serif">$</text>
</svg>